<?xml version="1.0" standalone="no"?>
<!DOCTYPE svg PUBLIC "-//W3C//DTD SVG 20010904//EN"
 "http://www.w3.org/TR/2001/REC-SVG-20010904/DTD/svg10.dtd">
<svg version="1.0" xmlns="http://www.w3.org/2000/svg"
 width="512.000000pt" height="512.000000pt" viewBox="0 0 512.000000 512.000000"
 preserveAspectRatio="xMidYMid meet">

<g transform="translate(0.000000,512.000000) scale(0.100000,-0.100000)"
fill="#000000" stroke="none">
<path d="M265 5106 c-44 -19 -92 -78 -99 -123 -4 -23 -1 -56 8 -83 26 -85
1195 -2894 1214 -2920 11 -14 34 -34 53 -45 33 -19 55 -20 652 -23 l617 -3 0
-789 0 -790 -616 0 c-548 0 -620 -2 -650 -16 -95 -45 -120 -172 -50 -252 58
-66 -41 -62 1484 -62 l1389 0 43 23 c89 47 116 163 56 241 -15 20 -37 41 -49
48 -17 10 -169 14 -647 18 l-625 5 -3 670 -2 670 342 -342 c189 -187 357 -348
375 -357 28 -14 94 -16 553 -16 498 0 522 1 559 20 117 59 114 232 -5 290 -38
19 -62 20 -500 20 l-459 0 -310 310 -310 310 475 0 c301 0 489 4 513 11 51 14
104 63 117 107 8 25 10 207 8 553 l-3 516 -29 37 c-53 70 11 66 -1095 66
l-999 0 -126 304 c-69 168 -126 309 -126 315 0 7 210 11 659 13 648 3 660 3
687 24 45 33 67 70 71 121 7 63 -14 112 -63 149 l-37 29 -732 3 -731 2 -172
418 c-95 230 -183 435 -195 457 -15 27 -37 48 -67 63 l-44 22 -551 0 c-432 -1
-556 -4 -580 -14z"/>
</g>
</svg>
