<?xml version="1.0" standalone="no"?>
<!DOCTYPE svg PUBLIC "-//W3C//DTD SVG 20010904//EN"
 "http://www.w3.org/TR/2001/REC-SVG-20010904/DTD/svg10.dtd">
<svg version="1.0" xmlns="http://www.w3.org/2000/svg"
 width="512.000000pt" height="512.000000pt" viewBox="0 0 512.000000 512.000000"
 preserveAspectRatio="xMidYMid meet">

<g transform="translate(0.000000,512.000000) scale(0.100000,-0.100000)"
fill="#000000" stroke="none">
<path d="M2471 5110 c-95 -20 -165 -66 -436 -284 -148 -120 -663 -532 -1143
-917 -544 -437 -877 -710 -883 -725 -12 -34 -12 -2719 1 -2798 30 -187 189
-346 376 -376 80 -13 4268 -13 4348 0 187 30 346 189 376 376 13 79 13 2764 0
2798 -6 16 -225 198 -587 488 -318 254 -821 658 -1118 897 -297 239 -561 450
-587 467 -97 66 -240 96 -347 74z m190 -253 c24 -12 262 -198 529 -413 267
-215 740 -594 1053 -843 312 -249 567 -454 567 -456 0 -2 -219 -176 -487 -387
-740 -580 -1261 -999 -1532 -1231 -118 -101 -165 -126 -235 -127 -63 0 -113
24 -196 96 -309 266 -822 680 -1516 1224 -269 210 -499 393 -512 405 l-24 22
684 546 c376 299 854 683 1063 851 233 188 395 311 420 320 62 22 135 20 186
-7z"/>
</g>
</svg>
