<?xml version="1.0" standalone="no"?>
<!DOCTYPE svg PUBLIC "-//W3C//DTD SVG 20010904//EN"
 "http://www.w3.org/TR/2001/REC-SVG-20010904/DTD/svg10.dtd">
<svg version="1.0" xmlns="http://www.w3.org/2000/svg"
 width="512.000000pt" height="512.000000pt" viewBox="0 0 512.000000 512.000000"
 preserveAspectRatio="xMidYMid meet">

<g transform="translate(0.000000,512.000000) scale(0.100000,-0.100000)"
fill="#000000" stroke="none">
<path d="M1215 5106 c-37 -17 -70 -52 -84 -89 -6 -16 -11 -88 -11 -162 l0
-133 -292 -4 c-287 -3 -295 -4 -369 -30 -208 -73 -353 -217 -426 -423 l-28
-80 0 -1825 0 -1825 28 -80 c73 -206 217 -349 426 -423 l76 -27 2025 0 2025 0
80 28 c206 73 349 217 423 426 l27 76 0 1825 0 1825 -27 76 c-74 209 -217 353
-423 426 -79 27 -82 28 -372 31 l-292 4 -3 148 c-3 162 -8 177 -72 224 -39 29
-133 29 -172 0 -64 -47 -69 -62 -72 -225 l-3 -149 -1119 0 -1119 0 -3 149 c-3
162 -8 178 -70 224 -34 25 -113 32 -153 13z m3569 -1762 c15 -14 16 -147 14
-1392 l-3 -1377 -28 -57 c-35 -72 -93 -130 -165 -165 l-57 -28 -1985 0 -1985
0 -57 28 c-72 35 -134 97 -167 167 l-26 55 -3 1377 c-2 1245 -1 1378 14 1392
14 15 221 16 2224 16 2003 0 2210 -1 2224 -16z"/>
</g>
</svg>
