<svg id="visual" viewBox="0 0 900 600" width="900" height="600" xmlns="http://www.w3.org/2000/svg" xmlns:xlink="http://www.w3.org/1999/xlink" version="1.1"><rect x="0" y="0" width="900" height="600" fill="#dbdada"></rect><path d="M0 330L25 325.5C50 321 100 312 150 297C200 282 250 261 300 256.7C350 252.3 400 264.7 450 273C500 281.3 550 285.7 600 289.5C650 293.3 700 296.7 750 293.2C800 289.7 850 279.3 875 274.2L900 269L900 0L875 0C850 0 800 0 750 0C700 0 650 0 600 0C550 0 500 0 450 0C400 0 350 0 300 0C250 0 200 0 150 0C100 0 50 0 25 0L0 0Z" fill="#ffc8b3"></path><path d="M0 208L25 215.8C50 223.7 100 239.3 150 246.2C200 253 250 251 300 243.7C350 236.3 400 223.7 450 231.5C500 239.3 550 267.7 600 262C650 256.3 700 216.7 750 210.8C800 205 850 233 875 247L900 261L900 0L875 0C850 0 800 0 750 0C700 0 650 0 600 0C550 0 500 0 450 0C400 0 350 0 300 0C250 0 200 0 150 0C100 0 50 0 25 0L0 0Z" fill="#fdbda2"></path><path d="M0 217L25 205.7C50 194.3 100 171.7 150 170.3C200 169 250 189 300 189C350 189 400 169 450 167.7C500 166.3 550 183.7 600 195.2C650 206.7 700 212.3 750 214.2C800 216 850 214 875 213L900 212L900 0L875 0C850 0 800 0 750 0C700 0 650 0 600 0C550 0 500 0 450 0C400 0 350 0 300 0C250 0 200 0 150 0C100 0 50 0 25 0L0 0Z" fill="#fab290"></path><path d="M0 128L25 132.3C50 136.7 100 145.3 150 147.7C200 150 250 146 300 137.3C350 128.7 400 115.3 450 117.3C500 119.3 550 136.7 600 140C650 143.3 700 132.7 750 127.5C800 122.3 850 122.7 875 122.8L900 123L900 0L875 0C850 0 800 0 750 0C700 0 650 0 600 0C550 0 500 0 450 0C400 0 350 0 300 0C250 0 200 0 150 0C100 0 50 0 25 0L0 0Z" fill="#f6a77e"></path><path d="M0 80L25 81.7C50 83.3 100 86.7 150 86.3C200 86 250 82 300 83.5C350 85 400 92 450 88C500 84 550 69 600 68.2C650 67.3 700 80.7 750 86.8C800 93 850 92 875 91.5L900 91L900 0L875 0C850 0 800 0 750 0C700 0 650 0 600 0C550 0 500 0 450 0C400 0 350 0 300 0C250 0 200 0 150 0C100 0 50 0 25 0L0 0Z" fill="#f19d6c"></path></svg>